<?xml version="1.0" encoding="utf-8"?>
<!-- Generator: Adobe Illustrator 25.1.0, SVG Export Plug-In . SVG Version: 6.00 Build 0)  -->
<svg version="1.1" id="Layer_1" xmlns="http://www.w3.org/2000/svg" xmlns:xlink="http://www.w3.org/1999/xlink" x="0px" y="0px"
	 viewBox="0 0 196.78 45.83" style="enable-background:new 0 0 196.78 45.83;" xml:space="preserve">
<style type="text/css">
	.st0{fill:#242424;}
	.st1{fill:#FC3D00;}
</style>
<g>
	<path class="st0" d="M65.4,16.67h16.62v2.41H68.01v8.3h12.53v2.35H68.01v10.08H65.4V16.67z"/>
	<path class="st0" d="M94.45,40.2c-1.28,0-2.46-0.24-3.54-0.71c-1.08-0.47-2.02-1.11-2.81-1.92c-0.79-0.8-1.41-1.74-1.85-2.81
		c-0.44-1.07-0.66-2.21-0.66-3.42v-0.07c0-1.21,0.22-2.36,0.66-3.44c0.44-1.08,1.06-2.03,1.85-2.84c0.79-0.81,1.74-1.46,2.83-1.93
		c1.09-0.47,2.29-0.71,3.59-0.71c1.28,0,2.46,0.24,3.55,0.71c1.09,0.47,2.03,1.11,2.83,1.92c0.79,0.8,1.41,1.74,1.85,2.81
		c0.44,1.07,0.66,2.21,0.66,3.42v0.07c0,1.21-0.23,2.36-0.68,3.44c-0.45,1.08-1.07,2.03-1.87,2.84s-1.74,1.46-2.84,1.93
		C96.92,39.96,95.73,40.2,94.45,40.2z M94.52,37.92c0.93,0,1.77-0.18,2.54-0.53c0.77-0.35,1.43-0.83,1.98-1.42
		c0.55-0.59,0.98-1.29,1.29-2.08c0.31-0.79,0.46-1.64,0.46-2.54v-0.07c0-0.92-0.16-1.79-0.48-2.59c-0.32-0.8-0.77-1.51-1.34-2.12
		c-0.57-0.61-1.25-1.08-2.02-1.44c-0.77-0.35-1.61-0.53-2.51-0.53c-0.93,0-1.77,0.18-2.54,0.53c-0.77,0.35-1.43,0.83-1.97,1.42
		c-0.54,0.59-0.96,1.29-1.27,2.1c-0.31,0.8-0.46,1.66-0.46,2.56v0.07c0,0.93,0.16,1.79,0.48,2.59c0.32,0.8,0.76,1.5,1.32,2.1
		c0.56,0.59,1.23,1.07,2,1.42C92.78,37.75,93.61,37.92,94.52,37.92z"/>
	<path class="st0" d="M115.8,40.2c-1.28,0-2.46-0.24-3.54-0.71c-1.08-0.47-2.02-1.11-2.81-1.92c-0.79-0.8-1.41-1.74-1.85-2.81
		c-0.44-1.07-0.66-2.21-0.66-3.42v-0.07c0-1.21,0.22-2.36,0.66-3.44s1.06-2.03,1.85-2.84c0.79-0.81,1.73-1.46,2.83-1.93
		c1.09-0.47,2.29-0.71,3.59-0.71c1.28,0,2.46,0.24,3.55,0.71c1.09,0.47,2.03,1.11,2.83,1.92c0.79,0.8,1.41,1.74,1.85,2.81
		c0.44,1.07,0.66,2.21,0.66,3.42v0.07c0,1.21-0.23,2.36-0.68,3.44c-0.45,1.08-1.07,2.03-1.87,2.84s-1.74,1.46-2.84,1.93
		C118.27,39.96,117.08,40.2,115.8,40.2z M115.87,37.92c0.93,0,1.77-0.18,2.54-0.53c0.77-0.35,1.43-0.83,1.98-1.42
		c0.55-0.59,0.98-1.29,1.29-2.08c0.31-0.79,0.46-1.64,0.46-2.54v-0.07c0-0.92-0.16-1.79-0.48-2.59c-0.32-0.8-0.77-1.51-1.34-2.12
		c-0.57-0.61-1.25-1.08-2.02-1.44c-0.77-0.35-1.61-0.53-2.51-0.53c-0.93,0-1.77,0.18-2.54,0.53c-0.77,0.35-1.43,0.83-1.97,1.42
		s-0.96,1.29-1.27,2.1c-0.31,0.8-0.46,1.66-0.46,2.56v0.07c0,0.93,0.16,1.79,0.48,2.59c0.32,0.8,0.76,1.5,1.32,2.1
		c0.56,0.59,1.23,1.07,2,1.42C114.13,37.75,114.96,37.92,115.87,37.92z"/>
	<path class="st0" d="M136.52,40.17c-1.04,0-2.04-0.2-3.01-0.59c-0.97-0.4-1.84-0.97-2.61-1.74c-0.77-0.76-1.39-1.69-1.85-2.78
		c-0.46-1.09-0.69-2.34-0.69-3.75v-0.07c0-1.39,0.23-2.63,0.69-3.74c0.46-1.1,1.08-2.03,1.85-2.79c0.77-0.76,1.64-1.34,2.61-1.75
		c0.97-0.41,1.97-0.61,3.01-0.61c0.79,0,1.52,0.1,2.18,0.3s1.26,0.46,1.79,0.79c0.53,0.33,1.01,0.72,1.44,1.16
		c0.43,0.44,0.81,0.9,1.14,1.39V15.68h2.54v24.13h-2.54v-3.44c-0.35,0.51-0.74,0.99-1.17,1.45c-0.43,0.46-0.91,0.87-1.44,1.22
		c-0.53,0.35-1.12,0.63-1.77,0.83C138.04,40.07,137.32,40.17,136.52,40.17z M136.99,37.89c0.79,0,1.56-0.16,2.3-0.48
		c0.74-0.32,1.4-0.77,1.98-1.35s1.05-1.28,1.39-2.08s0.51-1.7,0.51-2.69v-0.07c0-0.99-0.17-1.89-0.51-2.69
		c-0.34-0.8-0.8-1.49-1.39-2.07c-0.58-0.57-1.25-1.02-1.98-1.34s-1.5-0.48-2.3-0.48c-0.84,0-1.62,0.15-2.35,0.45
		c-0.73,0.3-1.36,0.73-1.9,1.29c-0.54,0.56-0.97,1.25-1.29,2.07c-0.32,0.82-0.48,1.74-0.48,2.78v0.07c0,1.01,0.16,1.93,0.48,2.74
		c0.32,0.82,0.75,1.51,1.3,2.08s1.19,1.01,1.92,1.32C135.4,37.74,136.17,37.89,136.99,37.89z"/>
	<path class="st1" d="M162.3,40.27c-1.81,0-3.48-0.29-5.01-0.88s-2.86-1.4-3.98-2.46s-2-2.32-2.64-3.78
		c-0.64-1.47-0.96-3.08-0.96-4.84v-0.07c0-1.67,0.31-3.24,0.94-4.71c0.62-1.46,1.49-2.74,2.58-3.83c1.1-1.09,2.41-1.94,3.94-2.56
		c1.53-0.62,3.19-0.93,4.97-0.93c2.05,0,3.82,0.3,5.3,0.89c1.49,0.6,2.85,1.42,4.08,2.48l-3.77,4.53c-0.84-0.7-1.69-1.24-2.56-1.62
		c-0.87-0.37-1.88-0.56-3.02-0.56c-0.84,0-1.61,0.17-2.33,0.5c-0.72,0.33-1.34,0.78-1.87,1.36c-0.53,0.57-0.95,1.25-1.26,2.02
		c-0.31,0.77-0.46,1.6-0.46,2.48v0.07c0,0.93,0.15,1.79,0.46,2.58s0.75,1.47,1.31,2.03c0.56,0.56,1.23,1,1.99,1.32
		c0.76,0.32,1.61,0.48,2.54,0.48c1.5,0,2.74-0.32,3.71-0.96v-2.81h-4.56v-4.69h10.64V36.7c-1.23,1.01-2.69,1.86-4.36,2.54
		S164.42,40.27,162.3,40.27z"/>
	<path class="st1" d="M184.68,40.24c-1.43,0-2.75-0.24-3.95-0.73s-2.24-1.15-3.12-2c-0.88-0.85-1.56-1.83-2.05-2.96
		c-0.49-1.12-0.73-2.32-0.73-3.6v-0.07c0-1.28,0.25-2.48,0.74-3.62c0.5-1.13,1.18-2.13,2.07-2.97c0.88-0.85,1.93-1.52,3.14-2.02
		s2.53-0.74,3.97-0.74c1.43,0,2.75,0.25,3.95,0.74c1.2,0.5,2.24,1.16,3.12,2c0.88,0.84,1.56,1.82,2.05,2.94
		c0.48,1.12,0.73,2.32,0.73,3.6v0.07c0,1.28-0.25,2.48-0.74,3.62c-0.5,1.13-1.18,2.13-2.07,2.97c-0.88,0.85-1.93,1.52-3.14,2.02
		C187.43,39.99,186.11,40.24,184.68,40.24z M184.74,34.88c0.57,0,1.09-0.1,1.55-0.31c0.46-0.21,0.85-0.49,1.17-0.85
		c0.32-0.36,0.57-0.78,0.74-1.26c0.18-0.48,0.26-0.98,0.26-1.51v-0.07c0-0.55-0.09-1.06-0.28-1.54c-0.19-0.48-0.45-0.9-0.79-1.26
		c-0.34-0.36-0.74-0.65-1.21-0.87c-0.46-0.22-0.97-0.33-1.52-0.33c-0.57,0-1.09,0.1-1.55,0.31c-0.46,0.21-0.85,0.49-1.17,0.85
		c-0.32,0.36-0.57,0.78-0.74,1.26c-0.18,0.48-0.26,0.98-0.26,1.51v0.07c0,0.55,0.09,1.06,0.28,1.54c0.19,0.48,0.45,0.9,0.79,1.26
		s0.74,0.65,1.21,0.87C183.68,34.77,184.19,34.88,184.74,34.88z"/>
</g>
<circle class="st1" cx="29.95" cy="7.24" r="2.95"/>
<path class="st1" d="M52.88,39.81H7.02c-1.13,0-2.05-0.92-2.05-2.05v0c0-1.13,0.92-2.05,2.05-2.05h45.85c1.13,0,2.05,0.92,2.05,2.05
	v0C54.93,38.88,54,39.81,52.88,39.81z"/>
<path class="st1" d="M17.61,17.8H6.39c-0.54,0-0.98-0.44-0.98-0.98v0c0-0.54,0.44-0.98,0.98-0.98h11.22c0.54,0,0.98,0.44,0.98,0.98
	v0C18.59,17.36,18.14,17.8,17.61,17.8z"/>
<path class="st1" d="M11.09,21.58H7.84c-0.5,0-0.91-0.41-0.91-0.91v0c0-0.5,0.41-0.91,0.91-0.91h3.24c0.5,0,0.91,0.41,0.91,0.91v0
	C12,21.17,11.59,21.58,11.09,21.58z"/>
<path class="st1" d="M9.19,25.5H2.56c-0.54,0-0.98-0.44-0.98-0.98v0c0-0.54,0.44-0.98,0.98-0.98h6.63c0.54,0,0.98,0.44,0.98,0.98v0
	C10.17,25.06,9.73,25.5,9.19,25.5z"/>
<path class="st1" d="M11.15,29.41H5.57c-0.54,0-0.98-0.44-0.98-0.98v0c0-0.54,0.44-0.98,0.98-0.98h5.58c0.54,0,0.98,0.44,0.98,0.98
	v0C12.13,28.97,11.69,29.41,11.15,29.41z"/>
<path class="st1" d="M29.95,9.83c-7.04,0-13.37,3.08-17.7,7.97h3.35c0.54,0,0.98,0.44,0.98,0.98c0,0.54-0.44,0.98-0.98,0.98h-4.9
	c-0.42,0.59-0.8,1.2-1.17,1.83h1.49c0.54,0,0.98,0.44,0.98,0.98c0,0.54-0.44,0.98-0.98,0.98H8.51c-0.3,0.64-0.57,1.29-0.81,1.96
	h3.82c0.54,0,0.98,0.44,0.98,0.98s-0.44,0.98-0.98,0.98H7.1c-0.38,1.42-0.63,2.89-0.73,4.4c-0.06,0.87,0.63,1.61,1.5,1.61h44.17
	c0.87,0,1.56-0.74,1.5-1.61C52.7,19.55,42.46,9.83,29.95,9.83z"/>
</svg>
